<?xml version="1.0"?>
<svg xmlns="http://www.w3.org/2000/svg" version="1.2" viewBox="0 0 96 96" width="96" height="96" baseProfile="tiny-ps">
	<title>noun-hacker-870666-svg</title>
	<style>
		.s0 { fill: #000000 } 
	</style>
	<g id="Layer">
		<g id="Layer">
			<g id="Layer">
				<path id="Layer" fill-rule="evenodd" class="s0" d="m23.7 84.5l-0.2-4-1.6-1.9h-12.3c-0.8 0-1.5-0.7-1.5-1.5 0-0.8 0.7-1.5 1.5-1.5h9.6l-1.7-1.9-0.1-0.1c-3.4-4.3-3.5-7.9-1.9-11.8l4.5-11.8c0.5-1.1 1.6-3 3.1-4.1l7.8-5.3q-0.9-0.8-1.6-1.6c-1.6-1.5-3.2-3.4-3.4-4.9q0-0.2 0-0.4 0-0.2 0-0.4 0-0.4 0.1-0.8c6.9-17.6 12.1-26.6 21.8-27.9h0.3c9.8 1.3 15 10.5 21.8 27.9q0.1 0.4 0.1 0.8 0 0.2 0 0.4 0 0.2 0 0.4c-0.2 1.5-1.8 3.4-3.3 4.9q-0.8 0.8-1.7 1.6l7.8 5.3c1.5 1.1 2.6 3 3.1 4.1l4.5 11.8c1.6 3.9 1.5 7.5-1.9 11.8l-0.1 0.1-1.7 1.9h9.2c0.8 0 1.5 0.7 1.5 1.5 0 0.8-0.7 1.5-1.5 1.5h-11.9l-1.6 1.9-0.2 4c0 0.8-0.7 1.5-1.5 1.5h-45.5c-0.8 0-1.5-0.7-1.5-1.5zm45.6-1.5v-1.7h-42.7v1.7zm0.2-4.7l0.9-26.9c0-0.6-0.5-1-1.1-1h-42.6c-0.6 0-1.1 0.4-1.1 1l0.9 26.9zm-25.3-3.6l-0.3-2.9h-2c-0.7 0-1.3-0.6-1.3-1.3v-0.5c0-0.6 0.3-1 0.8-1.2-1.3-1.5-2.1-3.5-2.1-5.6 0-4.7 3.8-8.5 8.5-8.5 4.7 0 8.6 3.8 8.6 8.5 0 2.1-0.8 4.1-2.1 5.6 0.5 0.2 0.8 0.6 0.8 1.2v0.5c0 0.7-0.6 1.3-1.4 1.3h-1.9l-0.3 2.9zm3-4.7l0.3-1.2c0.1-0.3-0.1-0.6-0.4-0.7-0.3-0.1-0.6 0.1-0.6 0.4l-0.3 1.3c-0.1 0.3 0.1 0.6 0.4 0.7 0.3 0 0.6-0.2 0.6-0.5zm2.6-0.2l-0.3-1.3c0-0.3-0.3-0.5-0.6-0.4-0.3 0.1-0.5 0.4-0.4 0.7l0.3 1.2c0 0.3 0.3 0.5 0.6 0.5 0.3-0.1 0.5-0.4 0.4-0.7zm-2.9-5.3q0-0.2 0-0.3c-1.7-0.1-3.3-0.5-4.7-1q-0.4 0.6-0.4 1.3c0 1.5 1.1 2.6 2.6 2.6 1.4 0 2.5-1.1 2.5-2.6zm7.1 0q0-0.7-0.4-1.3c-1.4 0.5-3 0.9-4.7 1q-0.1 0.1-0.1 0.3c0 1.5 1.2 2.6 2.6 2.6 1.4 0 2.6-1.1 2.6-2.6zm-5.8-20.5l1.9-0.4c1.6-0.5 3.2-1.2 4.6-2.2l0.8-0.7q0.1-0.1 0.1-0.2l0.9-2.1c0.7-1.5 1.2-3 1.7-4.7l0.5-2.3c0.1-0.3 0-0.5-0.3-0.6l-0.8-0.4h-19.1l-0.8 0.4c-0.2 0.1-0.3 0.3-0.2 0.6l0.5 2.3c0.5 1.7 1 3.2 1.6 4.7l1 2.1q0 0.1 0.1 0.2l0.7 0.6c1.5 1.1 3 1.8 4.7 2.3l1.9 0.4zm0.2-7.4l-0.2-5.1 2.3 5.1zm15.3-11.5l-15.4-15.4c-0.3-0.3-0.3-0.7 0-1 0.2-0.3 0.7-0.3 1 0l12.5 12.4c-4.1-8.2-7.8-12.1-12.6-13.2l-1.2-0.2-1.2 0.2c-6 1.4-10.2 7.1-15.8 20.6q1-0.5 2.1-0.8c3.9-1.2 9.2-1.9 14.9-1.9q1.5 0 2.9 0l-2.6-2.6c-0.3-0.3-0.3-0.7 0-1 0.2-0.3 0.7-0.3 1 0l3.8 3.8q1.4 0.1 2.7 0.2l-7.5-7.5c-0.3-0.3-0.3-0.7 0-1 0.2-0.3 0.7-0.3 1 0l8.9 8.8q0 0 0 0.1 1.6 0.3 3.1 0.6l-13-13c-0.3-0.3-0.3-0.7 0-1 0.2-0.3 0.7-0.3 1 0l14.9 14.8q0.1 0.1 0.1 0.2 0.4 0.1 0.8 0.3-0.7-1.8-1.4-3.4z"/>
			</g>
		</g>
	</g>
</svg>
